<svg width="24" height="24" viewBox="0 0 24 24" fill="none" xmlns="http://www.w3.org/2000/svg">
<path d="M20.9458 11.76C20.9233 11.7 20.2858 10.29 18.8758 8.8725C16.9933 6.9975 14.6158 6 11.9983 6C9.38078 6 7.00328 6.9975 5.12078 8.8725C3.71078 10.29 3.07328 11.7 3.05078 11.76C3.0173 11.8356 3 11.9173 3 12C3 12.0827 3.0173 12.1644 3.05078 12.24C3.07328 12.3 3.71078 13.71 5.12078 15.1275C7.00328 17.0025 9.38078 18 11.9983 18C14.6158 18 16.9933 17.0025 18.8758 15.1275C20.2858 13.71 20.9233 12.3 20.9458 12.24C20.9793 12.1644 20.9966 12.0827 20.9966 12C20.9966 11.9173 20.9793 11.8356 20.9458 11.76ZM11.9983 16.8C9.68829 16.8 7.67078 15.96 6.00578 14.3025C5.31768 13.6248 4.73384 12.8489 4.27328 12C4.73321 11.1485 5.31709 10.37 6.00578 9.69C7.67078 8.04 9.68829 7.2 11.9983 7.2C14.3083 7.2 16.3258 8.04 17.9908 9.69C18.6795 10.37 19.2634 11.1485 19.7233 12C19.1833 13.0125 16.8283 16.8 11.9983 16.8ZM11.9983 8.4C11.2863 8.4 10.5902 8.61114 9.99823 9.00671C9.40621 9.40228 8.94479 9.96453 8.67232 10.6223C8.39984 11.2802 8.32855 12.004 8.46746 12.7023C8.60636 13.4007 8.94923 14.0421 9.4527 14.5456C9.95617 15.0491 10.5976 15.3919 11.296 15.5308C11.9943 15.6697 12.7181 15.5984 13.3759 15.326C14.0338 15.0535 14.596 14.5921 14.9916 14.0001C15.3871 13.408 15.5983 12.712 15.5983 12C15.5983 11.0452 15.219 10.1295 14.5439 9.45442C13.8687 8.77928 12.9531 8.4 11.9983 8.4ZM11.9983 14.4C11.5236 14.4 11.0596 14.2592 10.6649 13.9955C10.2702 13.7318 9.96262 13.357 9.78097 12.9184C9.59932 12.4799 9.55179 11.9973 9.6444 11.5318C9.737 11.0662 9.96558 10.6386 10.3012 10.3029C10.6369 9.9673 11.0645 9.73872 11.5301 9.64612C11.9956 9.55351 12.4782 9.60104 12.9167 9.78269C13.3553 9.96434 13.7301 10.272 13.9938 10.6666C14.2575 11.0613 14.3983 11.5253 14.3983 12C14.3963 12.6359 14.1428 13.2452 13.6932 13.6949C13.2435 14.1445 12.6342 14.398 11.9983 14.4Z" fill="#31373D"/>
</svg>
