<svg width="24" height="24" viewBox="0 0 24 24" fill="none" xmlns="http://www.w3.org/2000/svg">
<path d="M4 4.53333C4 4.39188 4.05619 4.25623 4.15621 4.15621C4.25623 4.05619 4.39188 4 4.53333 4H6.13333C6.2523 4.00003 6.36784 4.03984 6.46158 4.11309C6.55532 4.18635 6.62188 4.28884 6.65067 4.40427L7.08267 6.13333H19.4667C19.545 6.13341 19.6223 6.15072 19.6932 6.18405C19.764 6.21739 19.8267 6.26591 19.8767 6.32619C19.9267 6.38647 19.9628 6.45701 19.9824 6.53282C20.0021 6.60862 20.0048 6.68783 19.9904 6.7648L18.3904 15.2981C18.3675 15.4204 18.3027 15.5307 18.207 15.6102C18.1114 15.6897 17.991 15.7332 17.8667 15.7333H8.26667C8.14233 15.7332 8.02194 15.6897 7.9263 15.6102C7.83067 15.5307 7.76581 15.4204 7.74293 15.2981L6.144 6.7808L5.71733 5.06667H4.53333C4.39188 5.06667 4.25623 5.01048 4.15621 4.91046C4.05619 4.81044 4 4.67478 4 4.53333ZM7.3088 7.2L8.70933 14.6667H17.424L18.8245 7.2H7.3088ZM9.33333 15.7333C8.76754 15.7333 8.22492 15.9581 7.82484 16.3582C7.42476 16.7583 7.2 17.3009 7.2 17.8667C7.2 18.4325 7.42476 18.9751 7.82484 19.3752C8.22492 19.7752 8.76754 20 9.33333 20C9.89913 20 10.4418 19.7752 10.8418 19.3752C11.2419 18.9751 11.4667 18.4325 11.4667 17.8667C11.4667 17.3009 11.2419 16.7583 10.8418 16.3582C10.4418 15.9581 9.89913 15.7333 9.33333 15.7333ZM16.8 15.7333C16.2342 15.7333 15.6916 15.9581 15.2915 16.3582C14.8914 16.7583 14.6667 17.3009 14.6667 17.8667C14.6667 18.4325 14.8914 18.9751 15.2915 19.3752C15.6916 19.7752 16.2342 20 16.8 20C17.3658 20 17.9084 19.7752 18.3085 19.3752C18.7086 18.9751 18.9333 18.4325 18.9333 17.8667C18.9333 17.3009 18.7086 16.7583 18.3085 16.3582C17.9084 15.9581 17.3658 15.7333 16.8 15.7333ZM9.33333 16.8C9.61623 16.8 9.88754 16.9124 10.0876 17.1124C10.2876 17.3125 10.4 17.5838 10.4 17.8667C10.4 18.1496 10.2876 18.4209 10.0876 18.6209C9.88754 18.821 9.61623 18.9333 9.33333 18.9333C9.05044 18.9333 8.77912 18.821 8.57909 18.6209C8.37905 18.4209 8.26667 18.1496 8.26667 17.8667C8.26667 17.5838 8.37905 17.3125 8.57909 17.1124C8.77912 16.9124 9.05044 16.8 9.33333 16.8ZM16.8 16.8C17.0829 16.8 17.3542 16.9124 17.5542 17.1124C17.7543 17.3125 17.8667 17.5838 17.8667 17.8667C17.8667 18.1496 17.7543 18.4209 17.5542 18.6209C17.3542 18.821 17.0829 18.9333 16.8 18.9333C16.5171 18.9333 16.2458 18.821 16.0458 18.6209C15.8457 18.4209 15.7333 18.1496 15.7333 17.8667C15.7333 17.5838 15.8457 17.3125 16.0458 17.1124C16.2458 16.9124 16.5171 16.8 16.8 16.8Z" fill="#fff"/>
</svg>
