<svg width="76" height="14" viewBox="0 0 76 14" fill="none" xmlns="http://www.w3.org/2000/svg">
  <path fill-rule="evenodd" clip-rule="evenodd" d="M8.64664 5.86954H5.36143L6.19919 0.420502C6.20584 0.393713 6.20157 0.365585 6.18722 0.341546C6.17388 0.317097 6.15129 0.298088 6.12379 0.288168C6.09627 0.27927 6.06633 0.27927 6.03882 0.288168C6.01052 0.295764 5.98623 0.31279 5.9706 0.335986L0.028505 7.65327C0.0128506 7.67058 0.00324839 7.69192 0.00097865 7.71443C-0.00208556 7.73656 0.00208441 7.75903 0.0129466 7.77893C0.0228766 7.79922 0.039138 7.81626 0.0596217 7.82786C0.079953 7.84008 0.103624 7.84664 0.127839 7.84676H3.41304L2.57529 13.288C2.57026 13.314 2.57535 13.3408 2.58965 13.3636C2.60372 13.3873 2.62611 13.4058 2.65308 13.4159C2.68027 13.4243 2.70966 13.4243 2.73686 13.4159C2.76447 13.4083 2.7885 13.3922 2.80507 13.3703L8.74717 6.05192C8.76066 6.0347 8.76856 6.01424 8.76991 5.99298C8.77189 5.97184 8.76732 5.95062 8.75674 5.93182C8.74655 5.91291 8.73078 5.89709 8.71126 5.88622C8.69187 5.87505 8.66945 5.86926 8.64664 5.86954Z" fill="#FEFBF6"/>
  <path d="M7.82926 4.93978C8.07219 4.93978 8.30967 4.87283 8.51164 4.74739C8.71361 4.62195 8.871 4.44366 8.96389 4.23508C9.05678 4.0265 9.08099 3.79701 9.03348 3.57564C8.98596 3.35427 8.86884 3.15097 8.69694 2.99147C8.52479 2.83216 8.30566 2.72389 8.06727 2.68036C7.82888 2.63682 7.58194 2.65997 7.35772 2.74688C7.13349 2.83379 6.94205 2.98056 6.80763 3.1686C6.6732 3.35664 6.60183 3.57751 6.60254 3.80326C6.60304 4.10485 6.73215 4.39396 6.96158 4.60727C7.07509 4.71337 7.21012 4.79748 7.35885 4.85475C7.50758 4.91201 7.66707 4.94129 7.82806 4.94089L7.82926 4.93978Z" fill="#FEFBF6"/>
  <path d="M15.0603 5.12215L14.9227 6.03292C14.9011 6.14412 14.8221 6.20306 14.6498 6.1608C14.5099 6.12309 14.3646 6.10509 14.219 6.10743C13.4434 6.10743 13.0222 6.56225 12.9025 7.33624L12.5207 9.94177C12.5146 9.98472 12.4921 10.0242 12.4573 10.053C12.4222 10.0831 12.3757 10.0991 12.328 10.0975H11.0822C11.0602 10.0996 11.0379 10.0965 11.0175 10.0886C10.9968 10.0808 10.9784 10.0686 10.9637 10.053C10.9498 10.0373 10.9396 10.0191 10.9338 9.9996C10.929 9.97945 10.929 9.95858 10.9338 9.93843L11.6638 5.06544C11.6689 5.0218 11.6916 4.98159 11.7274 4.9529C11.7631 4.92422 11.8093 4.9092 11.8565 4.91086H13.0461C13.0681 4.90878 13.0903 4.91184 13.1107 4.91976C13.1311 4.92757 13.1491 4.93977 13.1634 4.95534C13.1776 4.97105 13.1875 4.98976 13.1921 5.00983C13.198 5.02947 13.198 5.05025 13.1921 5.06988L13.1335 5.76047C13.4075 5.20444 13.83 4.7852 14.4679 4.7852C14.6492 4.77374 14.8294 4.81874 14.9801 4.91309C15.0142 4.93642 15.0401 4.96866 15.0543 5.0057C15.0686 5.04274 15.0707 5.0829 15.0603 5.12104V5.12215Z" fill="#FEFBF6"/>
  <path d="M20.3643 7.27164C20.2841 7.78096 20.0903 8.05008 19.681 8.05008H16.294C16.3742 8.69729 16.8637 9.05092 17.7182 9.05092C18.153 9.04661 18.58 8.94313 18.9617 8.74956C19.0754 8.6984 19.1436 8.71842 19.2238 8.83518L19.5218 9.29446C19.6127 9.42123 19.602 9.48573 19.4763 9.57025C18.9171 10.0081 18.2051 10.241 17.4741 10.2252C15.8656 10.2252 14.7944 9.2611 14.7944 7.84101C14.7935 7.03148 15.138 6.25463 15.7525 5.68074C16.367 5.10686 17.2012 4.78278 18.0725 4.77954C19.748 4.78288 20.569 5.9483 20.3643 7.27164ZM16.4149 7.0281H18.9916C19.0036 6.3264 18.5703 5.99056 17.875 5.99056C17.206 5.99056 16.6483 6.32974 16.4185 7.0281H16.4149Z" fill="#FEFBF6"/>
  <path d="M20.6411 7.81988C20.6398 7.01702 20.9809 6.24637 21.5896 5.67658C22.1983 5.10678 23.0252 4.78425 23.8892 4.77954C24.8359 4.77954 25.5647 5.14985 25.9764 5.70143C25.9899 5.71815 26 5.73698 26.0064 5.75703C26.0105 5.77761 26.0105 5.79873 26.0064 5.81931C26.0031 5.84018 25.9954 5.86023 25.9836 5.87825C25.9717 5.89597 25.9563 5.91144 25.9381 5.92384L25.1746 6.55993C25.1544 6.57861 25.1304 6.59335 25.104 6.6033C25.0776 6.61355 25.0494 6.61882 25.0208 6.61882C24.9922 6.61882 24.964 6.61355 24.9376 6.6033C24.9112 6.59335 24.8872 6.57861 24.867 6.55993C24.7327 6.41999 24.5674 6.30881 24.3823 6.2341C24.1972 6.1585 23.9968 6.12059 23.7947 6.1229C23.578 6.12361 23.3637 6.1644 23.1642 6.24287C22.9647 6.32134 22.784 6.43592 22.6326 6.57995C22.4806 6.72357 22.361 6.89395 22.2809 7.0811C22.2007 7.26824 22.1616 7.46838 22.1658 7.66976C22.1658 8.37146 22.6553 8.87188 23.4991 8.87188C23.9307 8.87573 24.3463 8.72059 24.6552 8.44041C24.682 8.40834 24.7202 8.38624 24.763 8.37808C24.8058 8.36992 24.8503 8.37625 24.8885 8.39592C24.9138 8.40952 24.9354 8.42812 24.952 8.45042L25.4929 9.05203C25.5116 9.06753 25.526 9.08699 25.5348 9.10875C25.5446 9.13017 25.5491 9.15334 25.548 9.17658C25.547 9.19951 25.5405 9.22194 25.5288 9.24219C25.5173 9.26305 25.501 9.28128 25.481 9.29557C25.1998 9.59106 24.8537 9.82699 24.4659 9.98739C24.0781 10.1478 23.6578 10.2289 23.2334 10.2252C21.6632 10.2252 20.6411 9.22329 20.6411 7.81988Z" fill="#FEFBF6"/>
  <path d="M31.7821 6.91816L31.3262 9.93737C31.3186 9.98115 31.2939 10.0208 31.2568 10.0486C31.2189 10.0807 31.1692 10.0983 31.1179 10.0975H29.9008C29.8787 10.0986 29.8567 10.0952 29.8362 10.0875C29.8158 10.0797 29.7978 10.0675 29.7835 10.0519C29.7694 10.0364 29.7592 10.0182 29.7536 9.99853C29.7482 9.97845 29.7482 9.95745 29.7536 9.93737L30.1521 7.24732C30.2718 6.51671 29.9128 6.12416 29.2521 6.12416C28.5915 6.12416 28.1511 6.51782 28.0422 7.25066L27.6329 9.94182C27.6268 9.98477 27.6043 10.0242 27.5694 10.053C27.5518 10.0679 27.5312 10.0793 27.5089 10.0868C27.4865 10.0942 27.4627 10.0975 27.439 10.0964H26.2111C26.1891 10.0985 26.1668 10.0954 26.1464 10.0875C26.1261 10.0797 26.108 10.0675 26.0938 10.0519C26.0793 10.0365 26.0687 10.0182 26.0627 9.99853C26.0579 9.97839 26.0579 9.95752 26.0627 9.93737L27.1398 2.68125C27.1443 2.63682 27.1669 2.59566 27.2029 2.56613C27.2389 2.53659 27.2856 2.5209 27.3337 2.52223H28.5664C28.5887 2.52019 28.6112 2.52317 28.632 2.53091C28.6529 2.53865 28.6714 2.55093 28.686 2.56671C28.7002 2.582 28.7101 2.60035 28.7148 2.62009C28.7209 2.64008 28.7209 2.66126 28.7148 2.68125L28.2708 5.68378C28.6693 5.16446 29.2521 4.78191 30.0659 4.78191C31.2376 4.78302 31.9868 5.56591 31.7821 6.91816Z" fill="#FEFBF6"/>
  <path d="M38.4658 4.91419C38.4873 4.91224 38.509 4.91491 38.5292 4.92198C38.5492 4.92978 38.5672 4.94154 38.5818 4.95645C38.5964 4.97168 38.6067 4.99002 38.6118 5.00983C38.6165 5.02923 38.6165 5.04937 38.6118 5.06877L37.8829 9.94177C37.8735 9.98591 37.8477 10.0256 37.8101 10.054C37.7726 10.0824 37.7255 10.0978 37.6771 10.0975H36.5736C36.5515 10.1005 36.5288 10.0981 36.5079 10.0908C36.4869 10.0834 36.4684 10.0711 36.4539 10.0552C36.4385 10.0397 36.4281 10.0204 36.424 9.99959C36.4186 9.97951 36.4186 9.95851 36.424 9.93843L36.4707 9.38241C36.2409 9.65059 35.9473 9.86559 35.613 10.0105C35.2786 10.1554 34.9127 10.2263 34.5439 10.2176C33.0945 10.2176 32.2783 9.28455 32.2783 7.91895C32.2783 6.25088 33.5098 4.77185 35.323 4.77185C36.1775 4.77185 36.7364 5.10547 37.0487 5.64036L37.1624 5.05876C37.1686 5.01559 37.1916 4.97602 37.2271 4.94755C37.2627 4.91806 37.3086 4.90148 37.3563 4.90085L38.4658 4.91419ZM36.6873 7.50972C36.807 6.67234 36.2996 6.12188 35.4678 6.12188C34.4756 6.12188 33.827 6.86362 33.827 7.711C33.827 8.44161 34.3165 8.89755 35.0692 8.89755C35.9154 8.89755 36.5736 8.34153 36.6873 7.50527V7.50972Z" fill="#FEFBF6"/>
  <path d="M42.9167 5.1221L42.7791 6.03287C42.7563 6.14408 42.6761 6.20302 42.505 6.16076C42.3651 6.12304 42.2198 6.10505 42.0742 6.10738C41.2986 6.10738 40.8774 6.56221 40.7577 7.33619L40.3747 9.94172C40.3696 9.9847 40.3474 10.0244 40.3125 10.0529C40.2764 10.0829 40.2291 10.0985 40.1808 10.0963H38.935C38.9133 10.0984 38.8915 10.0954 38.8715 10.0874C38.8507 10.0799 38.8322 10.0677 38.8177 10.0518C38.8038 10.0362 38.7936 10.018 38.7878 9.99844C38.783 9.97829 38.783 9.95742 38.7878 9.93728L39.5166 5.06428C39.5228 5.02111 39.5458 4.98154 39.5812 4.95307C39.6172 4.92391 39.664 4.90877 39.7117 4.91081H40.8989C40.9209 4.90874 40.9431 4.91179 40.9635 4.91971C40.9839 4.92753 41.0019 4.93972 41.0162 4.9553C41.0308 4.97052 41.041 4.98886 41.0461 5.00868C41.0509 5.02882 41.0509 5.04969 41.0461 5.06984L40.9899 5.76042C41.2639 5.2044 41.6852 4.78515 42.3243 4.78515C42.5056 4.77386 42.6857 4.81885 42.8365 4.91304C42.8706 4.93645 42.8961 4.96907 42.9095 5.00645C42.9231 5.04215 42.9256 5.0807 42.9167 5.11766V5.1221Z" fill="#FEFBF6"/>
  <path d="M48.7572 4.91411C48.7788 4.91208 48.8006 4.91514 48.8206 4.92301C48.8411 4.93109 48.8595 4.94323 48.8745 4.95859C48.8886 4.97451 48.8988 4.99311 48.9044 5.01308C48.9092 5.03285 48.9092 5.05337 48.9044 5.07314L48.1863 9.81491C47.9015 11.6798 46.2714 12.2725 44.9023 12.2725C44.0585 12.2725 43.2854 12.0501 42.8055 11.6898C42.7553 11.6526 42.7223 11.5989 42.7134 11.5397C42.7052 11.4804 42.7214 11.4204 42.7588 11.3718L43.1693 10.7891C43.2495 10.6779 43.3524 10.6412 43.4649 10.7046C43.8967 10.9523 44.3937 11.0843 44.9011 11.086C45.6766 11.086 46.5539 10.7691 46.6963 9.80491L46.7753 9.24888C46.3444 9.71483 45.7377 9.99062 44.9286 9.99062C43.526 9.99062 42.6631 9.14212 42.6631 7.79766C42.6631 6.12958 43.952 4.77844 45.7065 4.77844C46.5168 4.77844 47.0529 5.06424 47.3497 5.5313L47.4395 5.06424C47.4493 5.02073 47.4746 4.98156 47.5113 4.95303C47.5489 4.92372 47.5963 4.90759 47.6453 4.90744L48.7572 4.91411ZM46.9991 7.38953C47.1188 6.59442 46.6245 6.09622 45.8023 6.09622C45.5906 6.09505 45.3807 6.13284 45.1847 6.20743C44.989 6.28188 44.8115 6.39234 44.6629 6.53214C44.5135 6.67093 44.3961 6.8367 44.3183 7.01922C44.2393 7.20183 44.201 7.39741 44.2058 7.59415C44.2058 8.28251 44.6964 8.68396 45.4265 8.68396C45.8164 8.69374 46.1958 8.56548 46.4877 8.32515C46.7797 8.08482 46.9625 7.75038 46.9991 7.38953Z" fill="#FEFBF6"/>
  <path d="M54.6947 7.27166C54.6145 7.78097 54.4206 8.05009 54.0113 8.05009H50.6256C50.7057 8.6973 51.1952 9.05093 52.0498 9.05093C52.4846 9.04699 52.9117 8.94348 53.2932 8.74957C53.4069 8.69842 53.4751 8.71843 53.5553 8.8352L53.8569 9.29114C53.9479 9.41902 53.9371 9.48241 53.8114 9.56693C53.2517 10.0071 52.5375 10.241 51.8044 10.2241C50.1971 10.2241 49.126 9.26 49.126 7.83991C49.125 7.03153 49.4685 6.25568 50.0815 5.68199C50.6944 5.1083 51.5269 4.78344 52.3968 4.77844C54.0831 4.78289 54.9041 5.94832 54.6947 7.27166ZM50.7452 7.02812H53.3303C53.3423 6.32642 52.9091 5.99058 52.2137 5.99058C51.5411 5.99058 50.9846 6.32975 50.7536 7.02812H50.7452Z" fill="#FEFBF6"/>
  <path d="M54.6939 9.0732C54.6706 9.03747 54.6623 8.99495 54.6707 8.95388C54.6791 8.9128 54.7036 8.87607 54.7394 8.85079L55.5317 8.12017C55.5468 8.1016 55.5665 8.08672 55.5891 8.0768C55.6109 8.06601 55.6351 8.05992 55.6597 8.05901C55.6847 8.05762 55.7096 8.06142 55.7327 8.07013C55.7554 8.07904 55.7758 8.09231 55.7926 8.10905C56.2163 8.57611 56.6722 8.84078 57.3329 8.84078C58.0174 8.84078 58.5201 8.53942 58.5201 7.97116C58.5201 7.4952 58.1886 7.33618 57.6991 7.10265L56.9008 6.72233C56.1026 6.33978 55.4874 5.81045 55.4874 4.87855C55.4874 3.54409 56.6495 2.60107 58.2233 2.60107C59.1687 2.60107 59.9491 2.94915 60.4685 3.57523C60.4864 3.59429 60.4999 3.61665 60.508 3.64084C60.5151 3.6647 60.5176 3.68957 60.5151 3.71424C60.5118 3.73941 60.5029 3.76366 60.4888 3.78541C60.4748 3.80695 60.4566 3.82582 60.435 3.84101L59.6798 4.5605C59.59 4.64502 59.4979 4.66059 59.4177 4.59275C58.9964 4.2002 58.5979 3.99114 58.0725 3.99114C57.4454 3.99114 57.0708 4.29139 57.0708 4.74399C57.0708 5.11431 57.3197 5.30002 57.9708 5.59026L58.6314 5.90942C59.3722 6.26861 60.125 6.70231 60.125 7.7999C60.125 9.25891 58.8851 10.2197 57.2419 10.2197C55.9757 10.2253 55.0661 9.66592 54.6939 9.0732Z" fill="#FEFBF6"/>
  <path d="M70.2214 2.84464L69.1443 9.94174C69.1392 9.98472 69.117 10.0244 69.0821 10.0529C69.0645 10.0678 69.0439 10.0793 69.0215 10.0867C68.9991 10.0941 68.9754 10.0974 68.9516 10.0963H67.6615C67.6398 10.0974 67.6181 10.094 67.5981 10.0863C67.5777 10.0785 67.5597 10.0663 67.5454 10.0507C67.5316 10.0351 67.5218 10.0169 67.5167 9.99734C67.5107 9.9777 67.5107 9.95693 67.5167 9.93729L68.1893 5.4991L67.9607 5.98284L65.7179 9.97399C65.6992 10.0123 65.6689 10.0448 65.6306 10.0673C65.5923 10.0898 65.5478 10.1015 65.5025 10.1008H64.3499C64.3067 10.1038 64.2636 10.0929 64.228 10.0697C64.1925 10.0466 64.1666 10.0128 64.1549 9.97399L63.0502 5.98284L62.97 5.50577L62.3094 9.94174C62.3033 9.98469 62.2808 10.0242 62.246 10.0529C62.2283 10.0681 62.2075 10.0798 62.1849 10.0874C62.1623 10.0951 62.1383 10.0985 62.1143 10.0974H60.829C60.807 10.0995 60.7848 10.0964 60.7643 10.0885C60.7441 10.0806 60.7262 10.0685 60.7118 10.053C60.6975 10.0376 60.6872 10.0193 60.6818 9.99956C60.6764 9.97948 60.6764 9.95848 60.6818 9.9384L61.7589 2.8413C61.7629 2.79667 61.7853 2.75519 61.8214 2.72555C61.8575 2.69591 61.9046 2.68041 61.9528 2.68228H63.4308C63.5337 2.68228 63.5912 2.72454 63.6247 2.8413L65.135 8.35262L68.3664 2.79237C68.3857 2.75793 68.4158 2.72965 68.4526 2.71119C68.489 2.69218 68.5305 2.6833 68.5722 2.68562H70.0886C70.1096 2.68594 70.1303 2.6901 70.1496 2.69785C70.1684 2.70603 70.1851 2.71777 70.1987 2.73232C70.2119 2.74767 70.2213 2.76551 70.2262 2.78459C70.231 2.80361 70.231 2.8234 70.2262 2.84242L70.2214 2.84464Z" fill="#FEFBF6"/>
  <path d="M70.1709 9.0732C70.148 9.03742 70.1399 8.99512 70.1482 8.95421C70.1566 8.91349 70.1809 8.87707 70.2164 8.8519L71.0146 8.12017C71.0297 8.1016 71.0494 8.08672 71.0721 8.0768C71.0939 8.06601 71.118 8.05992 71.1427 8.05901C71.1676 8.05762 71.1926 8.06142 71.2157 8.07013C71.2387 8.07902 71.2595 8.09228 71.2767 8.10905C71.6992 8.57611 72.1552 8.84078 72.8158 8.84078C73.4992 8.84078 74.0018 8.53942 74.0018 7.97116C74.0018 7.4952 73.6727 7.33618 73.182 7.10265L72.3838 6.72233C71.5855 6.33978 70.9716 5.81601 70.9716 4.87855C70.9716 3.54409 72.1348 2.60107 73.7086 2.60107C74.6541 2.60107 75.4344 2.94915 75.9538 3.57523C75.9801 3.60406 75.9961 3.63971 75.9998 3.67733C76.0034 3.71494 75.9945 3.75269 75.9742 3.78541C75.9602 3.80695 75.9419 3.82582 75.9203 3.84101L75.1603 4.5605C75.0682 4.64502 74.9784 4.66059 74.8982 4.59275C74.4758 4.2002 74.076 3.99114 73.553 3.99114C72.9259 3.99114 72.5489 4.29139 72.5489 4.74399C72.5489 5.11431 72.8003 5.30002 73.4501 5.59026L74.1108 5.90942C74.8552 6.26528 75.6044 6.70009 75.6044 7.7999C75.6044 9.26225 74.3657 10.2231 72.7237 10.2231C71.4599 10.2253 70.5479 9.66592 70.1709 9.0732Z" fill="#FEFBF6"/>
</svg>
